<mxfile host="drawio-plugin" modified="2025-05-27T10:19:18.917Z" agent="Mozilla/5.0 (Macintosh; Intel Mac OS X 10_15_7) AppleWebKit/537.36 (KHTML, like Gecko) Chrome/122.0.0.0 Safari/537.36" etag="suPL4hQbfCWF37OcEqRn" version="22.1.22" type="embed">
  <diagram id="23iRSUPoRavnBvh4doch" name="Page-1">
    <mxGraphModel dx="1130" dy="778" grid="1" gridSize="10" guides="1" tooltips="1" connect="1" arrows="1" fold="1" page="1" pageScale="1" pageWidth="827" pageHeight="1169" math="0" shadow="0">
      <root>
        <mxCell id="0" />
        <mxCell id="1" parent="0" />
        <mxCell id="30" value="" style="group" vertex="1" connectable="0" parent="1">
          <mxGeometry x="152.25" y="650" width="385" height="150" as="geometry" />
        </mxCell>
        <mxCell id="14" value="Battery" style="rounded=1;whiteSpace=wrap;html=1;" vertex="1" parent="30">
          <mxGeometry y="90" width="120" height="60" as="geometry" />
        </mxCell>
        <mxCell id="15" value="ESC/BEC" style="rounded=0;whiteSpace=wrap;html=1;" vertex="1" parent="30">
          <mxGeometry x="165" y="105" width="85" height="30" as="geometry" />
        </mxCell>
        <mxCell id="18" style="edgeStyle=orthogonalEdgeStyle;rounded=0;orthogonalLoop=1;jettySize=auto;html=1;exitX=1;exitY=0.5;exitDx=0;exitDy=0;entryX=0;entryY=0.5;entryDx=0;entryDy=0;" edge="1" parent="30" source="14" target="15">
          <mxGeometry relative="1" as="geometry" />
        </mxCell>
        <mxCell id="16" value="FC/PDB/Stack" style="rounded=0;whiteSpace=wrap;html=1;" vertex="1" parent="30">
          <mxGeometry x="307.75" y="90" width="120" height="60" as="geometry" />
        </mxCell>
        <mxCell id="19" value="" style="edgeStyle=orthogonalEdgeStyle;rounded=0;orthogonalLoop=1;jettySize=auto;html=1;" edge="1" parent="30" source="15" target="16">
          <mxGeometry relative="1" as="geometry" />
        </mxCell>
        <mxCell id="17" value="Motor" style="shape=cylinder3;whiteSpace=wrap;html=1;boundedLbl=1;backgroundOutline=1;size=15;" vertex="1" parent="30">
          <mxGeometry x="185.25" width="44.5" height="65" as="geometry" />
        </mxCell>
        <mxCell id="20" value="" style="edgeStyle=orthogonalEdgeStyle;rounded=0;orthogonalLoop=1;jettySize=auto;html=1;" edge="1" parent="30" source="15" target="17">
          <mxGeometry relative="1" as="geometry" />
        </mxCell>
        <mxCell id="31" value="" style="group" vertex="1" connectable="0" parent="1">
          <mxGeometry x="142.5" y="890" width="404.5" height="150" as="geometry" />
        </mxCell>
        <mxCell id="22" value="Battery" style="rounded=1;whiteSpace=wrap;html=1;" vertex="1" parent="31">
          <mxGeometry y="90" width="120" height="60" as="geometry" />
        </mxCell>
        <mxCell id="25" value="ESC" style="rounded=0;whiteSpace=wrap;html=1;" vertex="1" parent="31">
          <mxGeometry x="344.5" y="105" width="60" height="30" as="geometry" />
        </mxCell>
        <mxCell id="29" value="" style="edgeStyle=orthogonalEdgeStyle;rounded=0;orthogonalLoop=1;jettySize=auto;html=1;" edge="1" parent="31" source="26" target="25">
          <mxGeometry relative="1" as="geometry" />
        </mxCell>
        <mxCell id="26" value="FC/PDB/Stack" style="rounded=0;whiteSpace=wrap;html=1;" vertex="1" parent="31">
          <mxGeometry x="177.5" y="90" width="120" height="60" as="geometry" />
        </mxCell>
        <mxCell id="28" value="" style="edgeStyle=orthogonalEdgeStyle;rounded=0;orthogonalLoop=1;jettySize=auto;html=1;" edge="1" parent="31" source="22" target="26">
          <mxGeometry relative="1" as="geometry" />
        </mxCell>
        <mxCell id="27" value="Motor" style="shape=cylinder3;whiteSpace=wrap;html=1;boundedLbl=1;backgroundOutline=1;size=15;" vertex="1" parent="31">
          <mxGeometry x="352.25" width="44.5" height="65" as="geometry" />
        </mxCell>
        <mxCell id="24" value="" style="edgeStyle=orthogonalEdgeStyle;rounded=0;orthogonalLoop=1;jettySize=auto;html=1;" edge="1" source="25" target="27" parent="31">
          <mxGeometry relative="1" as="geometry" />
        </mxCell>
        <mxCell id="2" value="RC Plane" style="shape=mxgraph.signs.transportation.airplane_6;html=1;pointerEvents=1;fillColor=#000000;strokeColor=none;verticalLabelPosition=bottom;verticalAlign=top;align=center;" vertex="1" parent="1">
          <mxGeometry x="450" y="464.5" width="97" height="101" as="geometry" />
        </mxCell>
        <mxCell id="5" value="Pilot" style="shape=umlActor;verticalLabelPosition=bottom;verticalAlign=top;html=1;outlineConnect=0;" vertex="1" parent="1">
          <mxGeometry x="170" y="465.5" width="50" height="100" as="geometry" />
        </mxCell>
        <mxCell id="33" value="" style="edgeStyle=orthogonalEdgeStyle;rounded=0;orthogonalLoop=1;jettySize=auto;html=1;" edge="1" parent="1" source="11" target="2">
          <mxGeometry relative="1" as="geometry" />
        </mxCell>
        <mxCell id="11" value="" style="group;movable=1;resizable=1;rotatable=1;deletable=1;editable=1;locked=0;connectable=1;" vertex="1" connectable="0" parent="1">
          <mxGeometry x="280" y="460" width="120" height="110" as="geometry" />
        </mxCell>
        <mxCell id="6" value="Radio" style="rounded=0;whiteSpace=wrap;html=1;verticalAlign=bottom;movable=0;resizable=0;rotatable=0;deletable=0;editable=0;locked=1;connectable=0;" vertex="1" parent="11">
          <mxGeometry y="50" width="120" height="60" as="geometry" />
        </mxCell>
        <mxCell id="7" value="" style="ellipse;whiteSpace=wrap;html=1;aspect=fixed;movable=0;resizable=0;rotatable=0;deletable=0;editable=0;locked=1;connectable=0;" vertex="1" parent="11">
          <mxGeometry x="20" y="57" width="28" height="28" as="geometry" />
        </mxCell>
        <mxCell id="8" value="" style="ellipse;whiteSpace=wrap;html=1;aspect=fixed;movable=0;resizable=0;rotatable=0;deletable=0;editable=0;locked=1;connectable=0;" vertex="1" parent="11">
          <mxGeometry x="70" y="57" width="28" height="28" as="geometry" />
        </mxCell>
        <mxCell id="9" value="" style="verticalLabelPosition=bottom;shadow=0;dashed=0;align=center;html=1;verticalAlign=top;shape=mxgraph.electrical.radio.aerial_-_antenna_2;movable=0;resizable=0;rotatable=0;deletable=0;editable=0;locked=1;connectable=0;" vertex="1" parent="11">
          <mxGeometry x="20.5" width="79" height="50" as="geometry" />
        </mxCell>
        <mxCell id="32" value="" style="edgeStyle=orthogonalEdgeStyle;rounded=0;orthogonalLoop=1;jettySize=auto;html=1;" edge="1" parent="1" source="5" target="11">
          <mxGeometry relative="1" as="geometry" />
        </mxCell>
      </root>
    </mxGraphModel>
  </diagram>
</mxfile>
